<svg xmlns="http://www.w3.org/2000/svg" viewBox="0 0 1000 500">
  <rect width="1000" height="500" fill="#080c14" />
  <g fill="#1f2937">
    <polygon points="80,110 210,70 320,110 300,170 220,200 170,190 120,150" />
    <polygon points="260,220 320,240 300,340 260,420 220,360 230,260" />
    <polygon points="260,40 320,30 360,60 320,80 260,70" />
    <polygon points="420,110 470,90 520,110 500,140 450,140" />
    <polygon points="460,160 520,170 540,260 510,360 460,320 430,240" />
    <polygon points="520,110 700,90 860,140 820,220 700,230 640,200 560,160" />
    <polygon points="740,300 820,320 860,380 820,430 740,400 720,340" />
    <polygon points="200,450 800,450 760,490 240,490" />
  </g>
  <g fill="none" stroke="#111827" stroke-width="1" opacity="0.5">
    <line x1="0" y1="125" x2="1000" y2="125" />
    <line x1="0" y1="250" x2="1000" y2="250" />
    <line x1="0" y1="375" x2="1000" y2="375" />
    <line x1="250" y1="0" x2="250" y2="500" />
    <line x1="500" y1="0" x2="500" y2="500" />
    <line x1="750" y1="0" x2="750" y2="500" />
  </g>
</svg>
